<svg xmlns="http://www.w3.org/2000/svg" viewBox="0 0 600 800" width="600" height="800">
  <defs>
    <pattern id="grid" width="30" height="30" patternUnits="userSpaceOnUse">
      <path d="M 30 0 L 0 0 0 30" fill="none" stroke="rgba(255,255,255,0.04)" stroke-width="1"/>
    </pattern>
    <linearGradient id="fade" x1="0" y1="0" x2="0" y2="1">
      <stop offset="0%" stop-color="#000000"/>
      <stop offset="100%" stop-color="#0a0a0a"/>
    </linearGradient>
  </defs>
  <rect width="600" height="800" fill="url(#fade)"/>
  <rect width="600" height="800" fill="url(#grid)"/>
  <rect x="0" y="0" width="600" height="3" fill="#cdff00" opacity="0.6"/>
  <!-- Logo area -->
  <rect x="40" y="80" width="520" height="1" fill="rgba(255,255,255,0.08)"/>
  <text x="40" y="60" font-family="monospace" font-size="11" fill="#cdff00" letter-spacing="3" opacity="0.8">RSMX.COM.BR</text>
  <!-- Browser chrome mockup -->
  <rect x="40" y="120" width="520" height="520" rx="8" fill="#111111" stroke="rgba(255,255,255,0.08)" stroke-width="1"/>
  <rect x="40" y="120" width="520" height="36" rx="8" fill="#161616"/>
  <rect x="40" y="144" width="520" height="12" fill="#161616"/>
  <circle cx="64" cy="138" r="5" fill="#ff5f57"/>
  <circle cx="82" cy="138" r="5" fill="#febc2e"/>
  <circle cx="100" cy="138" r="5" fill="#28c840"/>
  <rect x="120" y="130" width="320" height="16" rx="4" fill="#0e0e0e"/>
  <text x="280" y="142" font-family="monospace" font-size="9" fill="rgba(255,255,255,0.3)" text-anchor="middle">rsmx.com.br</text>
  <!-- Page content mockup -->
  <rect x="60" y="176" width="200" height="12" rx="2" fill="rgba(205,255,0,0.15)"/>
  <rect x="60" y="196" width="320" height="8" rx="2" fill="rgba(255,255,255,0.06)"/>
  <rect x="60" y="212" width="280" height="8" rx="2" fill="rgba(255,255,255,0.04)"/>
  <rect x="60" y="240" width="120" height="32" rx="4" fill="#cdff00" opacity="0.9"/>
  <rect x="60" y="300" width="480" height="1" fill="rgba(255,255,255,0.05)"/>
  <rect x="60" y="320" width="140" height="80" rx="6" fill="rgba(255,255,255,0.04)" stroke="rgba(255,255,255,0.06)" stroke-width="1"/>
  <rect x="220" y="320" width="140" height="80" rx="6" fill="rgba(255,255,255,0.04)" stroke="rgba(255,255,255,0.06)" stroke-width="1"/>
  <rect x="380" y="320" width="140" height="80" rx="6" fill="rgba(255,255,255,0.04)" stroke="rgba(255,255,255,0.06)" stroke-width="1"/>
  <rect x="60" y="420" width="480" height="1" fill="rgba(255,255,255,0.04)"/>
  <rect x="60" y="440" width="360" height="8" rx="2" fill="rgba(255,255,255,0.05)"/>
  <rect x="60" y="456" width="300" height="8" rx="2" fill="rgba(255,255,255,0.04)"/>
  <rect x="60" y="472" width="320" height="8" rx="2" fill="rgba(255,255,255,0.03)"/>
  <!-- Bottom info -->
  <rect x="0" y="680" width="600" height="120" fill="linear-gradient(to top, #000, transparent)"/>
  <text x="40" y="720" font-family="monospace" font-size="22" font-weight="bold" fill="white">RSMX</text>
  <text x="40" y="744" font-family="monospace" font-size="10" fill="rgba(255,255,255,0.4)" letter-spacing="2">INFRAESTRUTURA DE TI</text>
  <rect x="40" y="760" width="60" height="1" fill="#cdff00" opacity="0.5"/>
  <text x="40" y="778" font-family="monospace" font-size="10" fill="rgba(205,255,0,0.7)" letter-spacing="1">EM PRODUÇÃO</text>
</svg>
