<svg xmlns="http://www.w3.org/2000/svg" viewBox="0 0 600 800" width="600" height="800">
  <defs>
    <pattern id="grid" width="30" height="30" patternUnits="userSpaceOnUse">
      <path d="M 30 0 L 0 0 0 30" fill="none" stroke="rgba(255,255,255,0.04)" stroke-width="1"/>
    </pattern>
  </defs>
  <rect width="600" height="800" fill="#000000"/>
  <rect width="600" height="800" fill="url(#grid)"/>
  <rect x="0" y="0" width="600" height="3" fill="#cdff00" opacity="0.6"/>
  <text x="40" y="60" font-family="monospace" font-size="11" fill="#cdff00" letter-spacing="3" opacity="0.8">EM DESENVOLVIMENTO</text>
  <rect x="40" y="80" width="520" height="1" fill="rgba(255,255,255,0.08)"/>
  <!-- Browser chrome mockup -->
  <rect x="40" y="120" width="520" height="520" rx="8" fill="#111111" stroke="rgba(255,255,255,0.08)" stroke-width="1"/>
  <rect x="40" y="120" width="520" height="36" rx="8" fill="#161616"/>
  <rect x="40" y="144" width="520" height="12" fill="#161616"/>
  <circle cx="64" cy="138" r="5" fill="#ff5f57"/>
  <circle cx="82" cy="138" r="5" fill="#febc2e"/>
  <circle cx="100" cy="138" r="5" fill="#28c840"/>
  <rect x="120" y="130" width="320" height="16" rx="4" fill="#0e0e0e"/>
  <text x="280" y="142" font-family="monospace" font-size="9" fill="rgba(255,255,255,0.3)" text-anchor="middle">smartcenter.com.br</text>
  <!-- Page content mockup -->
  <rect x="60" y="176" width="480" height="200" rx="6" fill="rgba(255,255,255,0.03)" stroke="rgba(255,255,255,0.05)" stroke-width="1"/>
  <rect x="80" y="196" width="180" height="10" rx="2" fill="rgba(205,255,0,0.12)"/>
  <rect x="80" y="216" width="320" height="18" rx="2" fill="rgba(255,255,255,0.06)"/>
  <rect x="80" y="242" width="260" height="8" rx="2" fill="rgba(255,255,255,0.04)"/>
  <rect x="80" y="258" width="280" height="8" rx="2" fill="rgba(255,255,255,0.03)"/>
  <rect x="80" y="286" width="120" height="30" rx="4" fill="rgba(205,255,0,0.9)"/>
  <rect x="60" y="396" width="140" height="100" rx="6" fill="rgba(255,255,255,0.04)" stroke="rgba(255,255,255,0.06)" stroke-width="1"/>
  <rect x="220" y="396" width="140" height="100" rx="6" fill="rgba(255,255,255,0.04)" stroke="rgba(255,255,255,0.06)" stroke-width="1"/>
  <rect x="380" y="396" width="140" height="100" rx="6" fill="rgba(255,255,255,0.04)" stroke="rgba(255,255,255,0.06)" stroke-width="1"/>
  <rect x="60" y="515" width="480" height="1" fill="rgba(255,255,255,0.04)"/>
  <rect x="60" y="535" width="360" height="8" rx="2" fill="rgba(255,255,255,0.05)"/>
  <rect x="60" y="551" width="300" height="8" rx="2" fill="rgba(255,255,255,0.03)"/>
  <!-- Placeholder tag -->
  <rect x="160" y="590" width="280" height="36" rx="4" fill="rgba(205,255,0,0.05)" stroke="rgba(205,255,0,0.15)" stroke-width="1"/>
  <text x="300" y="613" font-family="monospace" font-size="11" fill="rgba(205,255,0,0.6)" text-anchor="middle" letter-spacing="2">SITE EM PRODUÇÃO EM BREVE</text>
  <!-- Bottom info -->
  <text x="40" y="720" font-family="monospace" font-size="22" font-weight="bold" fill="white">Smart Center</text>
  <text x="40" y="744" font-family="monospace" font-size="10" fill="rgba(255,255,255,0.4)" letter-spacing="2">INTEGRAÇÃO DE TI</text>
  <rect x="40" y="760" width="60" height="1" fill="#cdff00" opacity="0.5"/>
  <text x="40" y="778" font-family="monospace" font-size="10" fill="rgba(205,255,0,0.5)" letter-spacing="1">EM BREVE</text>
</svg>
